<svg width="1440" height="869" viewBox="0 0 1440 869" fill="none" xmlns="http://www.w3.org/2000/svg">
<g id="hero-svg">
<g id="pipe-lower">
<path id="Pipe" d="M-1216 647H214.5C220.023 647 224.5 651.477 224.5 657V688C224.5 693.523 228.977 698 234.5 698H321.5C327.023 698 331.5 693.523 331.5 688V599C331.5 593.477 335.977 589 341.5 589H587.5C593.023 589 597.5 593.477 597.5 599V660C597.5 665.523 601.977 670 607.5 670H764.5C770.023 670 774.5 674.477 774.5 680V763C774.5 768.523 778.977 773 784.5 773H844C849.523 773 854 777.477 854 783V835C854 840.523 858.477 845 864 845H1307C1312.52 845 1317 840.523 1317 835V708C1317 702.477 1321.48 698 1327 698H1476H2735" stroke="#FFD865" stroke-width="40" stroke-linecap="square"/>
<g id="Brackets">
<rect id="Rectangle 1" x="35.5" y="623" width="19" height="48" fill="#E4C159"/>
<rect id="Rectangle 2" x="154.5" y="623" width="19" height="48" fill="#E4C159"/>
<rect id="Rectangle 3" x="266.5" y="674" width="19" height="48" fill="#E4C159"/>
<rect id="Rectangle 4" x="377.5" y="565" width="19" height="48" fill="#E4C159"/>
<rect id="Rectangle 5" x="531.5" y="565" width="19" height="48" fill="#E4C159"/>
<rect id="Rectangle 6" x="674.5" y="646" width="19" height="48" fill="#E4C159"/>
<rect id="Rectangle 9" x="901.5" y="821" width="19" height="48" fill="#E4C159"/>
<rect id="Rectangle 10" x="1258.5" y="821" width="19" height="48" fill="#E4C159"/>
<rect id="Rectangle 12" x="1351.5" y="675" width="19" height="48" fill="#E4C159"/>
<rect id="Rectangle 8" x="829.5" y="819" width="19" height="48" transform="rotate(-90 829.5 819)" fill="#E4C159"/>
<rect id="Rectangle 13" x="750.5" y="734" width="19" height="48" transform="rotate(-90 750.5 734)" fill="#E4C159"/>
<rect id="Rectangle 11" x="1292.5" y="803" width="19" height="48" transform="rotate(-90 1292.5 803)" fill="#E4C159"/>
<rect id="Rectangle 7" x="307.5" y="653" width="19" height="48" transform="rotate(-90 307.5 653)" fill="#E4C159"/>
<rect id="Rectangle 12_2" x="1292.5" y="743" width="19" height="48" transform="rotate(-90 1292.5 743)" fill="#E4C159"/>
</g>
<g id="Arrows">
<g id="arrow_circle_down">
<g id="arrow_circle_down_2">
<path id="Vector" d="M95.8333 644.333H102.5V639.333L109.167 646L102.5 652.667V647.667H95.8333V644.333ZM85.8333 646C85.8333 655.2 93.3 662.667 102.5 662.667C111.7 662.667 119.167 655.2 119.167 646C119.167 636.8 111.7 629.333 102.5 629.333C93.3 629.333 85.8333 636.8 85.8333 646Z" fill="#C73635"/>
</g>
</g>
<g id="arrow_circle_down_3">
<g id="arrow_circle_down_4">
<path id="Vector_2" d="M452.833 587.333H459.5V582.333L466.167 589L459.5 595.667V590.667H452.833V587.333ZM442.833 589C442.833 598.2 450.3 605.667 459.5 605.667C468.7 605.667 476.167 598.2 476.167 589C476.167 579.8 468.7 572.333 459.5 572.333C450.3 572.333 442.833 579.8 442.833 589Z" fill="#C73635"/>
</g>
</g>
<g id="arrow_circle_down_5">
<g id="arrow_circle_down_6">
<path id="Vector_3" d="M718.833 668.333H725.5V663.333L732.167 670L725.5 676.667V671.667H718.833V668.333ZM708.833 670C708.833 679.2 716.3 686.667 725.5 686.667C734.7 686.667 742.167 679.2 742.167 670C742.167 660.8 734.7 653.333 725.5 653.333C716.3 653.333 708.833 660.8 708.833 670Z" fill="#C73635"/>
</g>
</g>
</g>
</g>
<g id="pipe-upper">
<path id="Pipe_2" d="M2359 395H1548.5H1325.5C1319.98 395 1315.5 390.523 1315.5 385V314.5C1315.5 308.977 1319.98 304.5 1325.5 304.5H1399.5C1405.02 304.5 1409.5 300.023 1409.5 294.5V218C1409.5 212.477 1405.02 208 1399.5 208H1257C1251.48 208 1247 203.523 1247 198V115C1247 109.477 1242.52 105 1237 105H1080C1074.48 105 1070 100.523 1070 95V34C1070 28.4772 1065.52 24 1060 24H814C808.477 24 804 28.4772 804 34V123C804 128.523 799.523 133 794 133H707C701.477 133 697 128.523 697 123V92C697 86.4772 692.523 82 687 82H492H-20.5H-859" stroke="#FFD865" stroke-width="40" stroke-linecap="square"/>
<rect id="Bracket" x="387" y="58" width="19" height="48" fill="#E4C159"/>
<rect id="Bracket_2" x="620" y="58" width="19" height="48" fill="#E4C159"/>
<rect id="Bracket_3" x="741" y="109" width="19" height="48" fill="#E4C159"/>
<rect id="Bracket_4" x="855" width="19" height="48" fill="#E4C159"/>
<rect id="Bracket_5" x="995" width="19" height="48" fill="#E4C159"/>
<rect id="Bracket_6" x="1185" y="81" width="19" height="48" fill="#E4C159"/>
<rect id="Bracket_7" x="1355" y="184" width="19" height="48" fill="#E4C159"/>
<rect id="Bracket_8" x="1046" y="74" width="19" height="48" transform="rotate(-90 1046 74)" fill="#E4C159"/>
<rect id="Bracket_9" x="1223" y="164" width="19" height="48" transform="rotate(-90 1223 164)" fill="#E4C159"/>
<rect id="Bracket_10" x="1292" y="361" width="19" height="46" transform="rotate(-90 1292 361)" fill="#E4C159"/>
<g id="Arrows_2">
<g id="arrow_circle_down_7">
<g id="arrow_circle_down_8">
<path id="Vector_4" d="M1140.67 106.667H1134V111.667L1127.33 105L1134 98.3333V103.333H1140.67V106.667ZM1150.67 105C1150.67 95.8 1143.2 88.3333 1134 88.3333C1124.8 88.3333 1117.33 95.8 1117.33 105C1117.33 114.2 1124.8 121.667 1134 121.667C1143.2 121.667 1150.67 114.2 1150.67 105Z" fill="#C73635"/>
</g>
</g>
<g id="arrow_circle_down_9">
<g id="arrow_circle_down_10">
<path id="Vector_5" d="M521.667 83.6667H515V88.6667L508.333 82L515 75.3333V80.3333H521.667V83.6667ZM531.667 82C531.667 72.8 524.2 65.3333 515 65.3333C505.8 65.3333 498.333 72.8 498.333 82C498.333 91.2 505.8 98.6667 515 98.6667C524.2 98.6667 531.667 91.2 531.667 82Z" fill="#C73635"/>
</g>
</g>
<g id="arrow_circle_down_11">
<g id="arrow_circle_down_12">
<path id="Vector_6" d="M1407.33 267.667V261H1402.33L1409 254.333L1415.67 261H1410.67V267.667H1407.33ZM1409 277.667C1418.2 277.667 1425.67 270.2 1425.67 261C1425.67 251.8 1418.2 244.333 1409 244.333C1399.8 244.333 1392.33 251.8 1392.33 261C1392.33 270.2 1399.8 277.667 1409 277.667Z" fill="#C73635"/>
</g>
</g>
<g id="arrow_circle_down_13">
<g id="arrow_circle_down_14">
<path id="Vector_7" d="M805.667 71.3333V78H810.667L804 84.6667L797.333 78H802.333V71.3333H805.667ZM804 61.3333C794.8 61.3333 787.333 68.8 787.333 78C787.333 87.2 794.8 94.6667 804 94.6667C813.2 94.6667 820.667 87.2 820.667 78C820.667 68.8 813.2 61.3333 804 61.3333Z" fill="#C73635"/>
</g>
</g>
</g>
<path id="Need a Discord bot for [use]?" d="M319.07 298H313.94L298.505 274.645V298H293.375V266.68H298.505L313.94 289.99V266.68H319.07V298ZM347.632 284.995C347.632 285.925 347.572 286.765 347.452 287.515H328.507C328.657 289.495 329.392 291.085 330.712 292.285C332.032 293.485 333.652 294.085 335.572 294.085C338.332 294.085 340.282 292.93 341.422 290.62H346.957C346.207 292.9 344.842 294.775 342.862 296.245C340.912 297.685 338.482 298.405 335.572 298.405C333.202 298.405 331.072 297.88 329.182 296.83C327.322 295.75 325.852 294.25 324.772 292.33C323.722 290.38 323.197 288.13 323.197 285.58C323.197 283.03 323.707 280.795 324.727 278.875C325.777 276.925 327.232 275.425 329.092 274.375C330.982 273.325 333.142 272.8 335.572 272.8C337.912 272.8 339.997 273.31 341.827 274.33C343.657 275.35 345.082 276.79 346.102 278.65C347.122 280.48 347.632 282.595 347.632 284.995ZM342.277 283.375C342.247 281.485 341.572 279.97 340.252 278.83C338.932 277.69 337.297 277.12 335.347 277.12C333.577 277.12 332.062 277.69 330.802 278.83C329.542 279.94 328.792 281.455 328.552 283.375H342.277ZM374.505 284.995C374.505 285.925 374.445 286.765 374.325 287.515H355.38C355.53 289.495 356.265 291.085 357.585 292.285C358.905 293.485 360.525 294.085 362.445 294.085C365.205 294.085 367.155 292.93 368.295 290.62H373.83C373.08 292.9 371.715 294.775 369.735 296.245C367.785 297.685 365.355 298.405 362.445 298.405C360.075 298.405 357.945 297.88 356.055 296.83C354.195 295.75 352.725 294.25 351.645 292.33C350.595 290.38 350.07 288.13 350.07 285.58C350.07 283.03 350.58 280.795 351.6 278.875C352.65 276.925 354.105 275.425 355.965 274.375C357.855 273.325 360.015 272.8 362.445 272.8C364.785 272.8 366.87 273.31 368.7 274.33C370.53 275.35 371.955 276.79 372.975 278.65C373.995 280.48 374.505 282.595 374.505 284.995ZM369.15 283.375C369.12 281.485 368.445 279.97 367.125 278.83C365.805 277.69 364.17 277.12 362.22 277.12C360.45 277.12 358.935 277.69 357.675 278.83C356.415 279.94 355.665 281.455 355.425 283.375H369.15ZM376.944 285.49C376.944 283 377.454 280.795 378.474 278.875C379.524 276.955 380.934 275.47 382.704 274.42C384.504 273.34 386.499 272.8 388.689 272.8C390.309 272.8 391.899 273.16 393.459 273.88C395.049 274.57 396.309 275.5 397.239 276.67V264.7H402.414V298H397.239V294.265C396.399 295.465 395.229 296.455 393.729 297.235C392.259 298.015 390.564 298.405 388.644 298.405C386.484 298.405 384.504 297.865 382.704 296.785C380.934 295.675 379.524 294.145 378.474 292.195C377.454 290.215 376.944 287.98 376.944 285.49ZM397.239 285.58C397.239 283.87 396.879 282.385 396.159 281.125C395.469 279.865 394.554 278.905 393.414 278.245C392.274 277.585 391.044 277.255 389.724 277.255C388.404 277.255 387.174 277.585 386.034 278.245C384.894 278.875 383.964 279.82 383.244 281.08C382.554 282.31 382.209 283.78 382.209 285.49C382.209 287.2 382.554 288.7 383.244 289.99C383.964 291.28 384.894 292.27 386.034 292.96C387.204 293.62 388.434 293.95 389.724 293.95C391.044 293.95 392.274 293.62 393.414 292.96C394.554 292.3 395.469 291.34 396.159 290.08C396.879 288.79 397.239 287.29 397.239 285.58ZM417.331 285.49C417.331 283 417.841 280.795 418.861 278.875C419.911 276.955 421.321 275.47 423.091 274.42C424.891 273.34 426.871 272.8 429.031 272.8C430.981 272.8 432.676 273.19 434.116 273.97C435.586 274.72 436.756 275.665 437.626 276.805V273.205H442.801V298H437.626V294.31C436.756 295.48 435.571 296.455 434.071 297.235C432.571 298.015 430.861 298.405 428.941 298.405C426.811 298.405 424.861 297.865 423.091 296.785C421.321 295.675 419.911 294.145 418.861 292.195C417.841 290.215 417.331 287.98 417.331 285.49ZM437.626 285.58C437.626 283.87 437.266 282.385 436.546 281.125C435.856 279.865 434.941 278.905 433.801 278.245C432.661 277.585 431.431 277.255 430.111 277.255C428.791 277.255 427.561 277.585 426.421 278.245C425.281 278.875 424.351 279.82 423.631 281.08C422.941 282.31 422.596 283.78 422.596 285.49C422.596 287.2 422.941 288.7 423.631 289.99C424.351 291.28 425.281 292.27 426.421 292.96C427.591 293.62 428.821 293.95 430.111 293.95C431.431 293.95 432.661 293.62 433.801 292.96C434.941 292.3 435.856 291.34 436.546 290.08C437.266 288.79 437.626 287.29 437.626 285.58ZM469.644 266.725C472.974 266.725 475.884 267.37 478.374 268.66C480.894 269.92 482.829 271.75 484.179 274.15C485.559 276.52 486.249 279.295 486.249 282.475C486.249 285.655 485.559 288.415 484.179 290.755C482.829 293.095 480.894 294.895 478.374 296.155C475.884 297.385 472.974 298 469.644 298H459.429V266.725H469.644ZM469.644 293.815C473.304 293.815 476.109 292.825 478.059 290.845C480.009 288.865 480.984 286.075 480.984 282.475C480.984 278.845 480.009 276.01 478.059 273.97C476.109 271.93 473.304 270.91 469.644 270.91H464.559V293.815H469.644ZM493.043 269.92C492.113 269.92 491.333 269.605 490.703 268.975C490.073 268.345 489.758 267.565 489.758 266.635C489.758 265.705 490.073 264.925 490.703 264.295C491.333 263.665 492.113 263.35 493.043 263.35C493.943 263.35 494.708 263.665 495.338 264.295C495.968 264.925 496.283 265.705 496.283 266.635C496.283 267.565 495.968 268.345 495.338 268.975C494.708 269.605 493.943 269.92 493.043 269.92ZM495.563 273.205V298H490.433V273.205H495.563ZM510.398 298.405C508.448 298.405 506.693 298.06 505.133 297.37C503.603 296.65 502.388 295.69 501.488 294.49C500.588 293.26 500.108 291.895 500.048 290.395H505.358C505.448 291.445 505.943 292.33 506.843 293.05C507.773 293.74 508.928 294.085 510.308 294.085C511.748 294.085 512.858 293.815 513.638 293.275C514.448 292.705 514.853 291.985 514.853 291.115C514.853 290.185 514.403 289.495 513.503 289.045C512.633 288.595 511.238 288.1 509.318 287.56C507.458 287.05 505.943 286.555 504.773 286.075C503.603 285.595 502.583 284.86 501.713 283.87C500.873 282.88 500.453 281.575 500.453 279.955C500.453 278.635 500.843 277.435 501.623 276.355C502.403 275.245 503.513 274.375 504.953 273.745C506.423 273.115 508.103 272.8 509.993 272.8C512.813 272.8 515.078 273.52 516.788 274.96C518.528 276.37 519.458 278.305 519.578 280.765H514.448C514.358 279.655 513.908 278.77 513.098 278.11C512.288 277.45 511.193 277.12 509.813 277.12C508.463 277.12 507.428 277.375 506.708 277.885C505.988 278.395 505.628 279.07 505.628 279.91C505.628 280.57 505.868 281.125 506.348 281.575C506.828 282.025 507.413 282.385 508.103 282.655C508.793 282.895 509.813 283.21 511.163 283.6C512.963 284.08 514.433 284.575 515.573 285.085C516.743 285.565 517.748 286.285 518.588 287.245C519.428 288.205 519.863 289.48 519.893 291.07C519.893 292.48 519.503 293.74 518.723 294.85C517.943 295.96 516.833 296.83 515.393 297.46C513.983 298.09 512.318 298.405 510.398 298.405ZM522.826 285.58C522.826 283.03 523.336 280.795 524.356 278.875C525.406 276.925 526.846 275.425 528.676 274.375C530.506 273.325 532.606 272.8 534.976 272.8C537.976 272.8 540.451 273.52 542.401 274.96C544.381 276.37 545.716 278.395 546.406 281.035H540.871C540.421 279.805 539.701 278.845 538.711 278.155C537.721 277.465 536.476 277.12 534.976 277.12C532.876 277.12 531.196 277.87 529.936 279.37C528.706 280.84 528.091 282.91 528.091 285.58C528.091 288.25 528.706 290.335 529.936 291.835C531.196 293.335 532.876 294.085 534.976 294.085C537.946 294.085 539.911 292.78 540.871 290.17H546.406C545.686 292.69 544.336 294.7 542.356 296.2C540.376 297.67 537.916 298.405 534.976 298.405C532.606 298.405 530.506 297.88 528.676 296.83C526.846 295.75 525.406 294.25 524.356 292.33C523.336 290.38 522.826 288.13 522.826 285.58ZM561.374 298.405C559.034 298.405 556.919 297.88 555.029 296.83C553.139 295.75 551.654 294.25 550.574 292.33C549.494 290.38 548.954 288.13 548.954 285.58C548.954 283.06 549.509 280.825 550.619 278.875C551.729 276.925 553.244 275.425 555.164 274.375C557.084 273.325 559.229 272.8 561.599 272.8C563.969 272.8 566.114 273.325 568.034 274.375C569.954 275.425 571.469 276.925 572.579 278.875C573.689 280.825 574.244 283.06 574.244 285.58C574.244 288.1 573.674 290.335 572.534 292.285C571.394 294.235 569.834 295.75 567.854 296.83C565.904 297.88 563.744 298.405 561.374 298.405ZM561.374 293.95C562.694 293.95 563.924 293.635 565.064 293.005C566.234 292.375 567.179 291.43 567.899 290.17C568.619 288.91 568.979 287.38 568.979 285.58C568.979 283.78 568.634 282.265 567.944 281.035C567.254 279.775 566.339 278.83 565.199 278.2C564.059 277.57 562.829 277.255 561.509 277.255C560.189 277.255 558.959 277.57 557.819 278.2C556.709 278.83 555.824 279.775 555.164 281.035C554.504 282.265 554.174 283.78 554.174 285.58C554.174 288.25 554.849 290.32 556.199 291.79C557.579 293.23 559.304 293.95 561.374 293.95ZM583.545 276.805C584.295 275.545 585.285 274.57 586.515 273.88C587.775 273.16 589.26 272.8 590.97 272.8V278.11H589.665C587.655 278.11 586.125 278.62 585.075 279.64C584.055 280.66 583.545 282.43 583.545 284.95V298H578.415V273.205H583.545V276.805ZM593.075 285.49C593.075 283 593.585 280.795 594.605 278.875C595.655 276.955 597.065 275.47 598.835 274.42C600.635 273.34 602.63 272.8 604.82 272.8C606.44 272.8 608.03 273.16 609.59 273.88C611.18 274.57 612.44 275.5 613.37 276.67V264.7H618.545V298H613.37V294.265C612.53 295.465 611.36 296.455 609.86 297.235C608.39 298.015 606.695 298.405 604.775 298.405C602.615 298.405 600.635 297.865 598.835 296.785C597.065 295.675 595.655 294.145 594.605 292.195C593.585 290.215 593.075 287.98 593.075 285.49ZM613.37 285.58C613.37 283.87 613.01 282.385 612.29 281.125C611.6 279.865 610.685 278.905 609.545 278.245C608.405 277.585 607.175 277.255 605.855 277.255C604.535 277.255 603.305 277.585 602.165 278.245C601.025 278.875 600.095 279.82 599.375 281.08C598.685 282.31 598.34 283.78 598.34 285.49C598.34 287.2 598.685 288.7 599.375 289.99C600.095 291.28 601.025 292.27 602.165 292.96C603.335 293.62 604.565 293.95 605.855 293.95C607.175 293.95 608.405 293.62 609.545 292.96C610.685 292.3 611.6 291.34 612.29 290.08C613.01 288.79 613.37 287.29 613.37 285.58ZM640.303 276.895C641.173 275.695 642.358 274.72 643.858 273.97C645.388 273.19 647.083 272.8 648.943 272.8C651.133 272.8 653.113 273.325 654.883 274.375C656.653 275.425 658.048 276.925 659.068 278.875C660.088 280.795 660.598 283 660.598 285.49C660.598 287.98 660.088 290.215 659.068 292.195C658.048 294.145 656.638 295.675 654.838 296.785C653.068 297.865 651.103 298.405 648.943 298.405C647.023 298.405 645.313 298.03 643.813 297.28C642.343 296.53 641.173 295.57 640.303 294.4V298H635.173V264.7H640.303V276.895ZM655.378 285.49C655.378 283.78 655.018 282.31 654.298 281.08C653.608 279.82 652.678 278.875 651.508 278.245C650.368 277.585 649.138 277.255 647.818 277.255C646.528 277.255 645.298 277.585 644.128 278.245C642.988 278.905 642.058 279.865 641.338 281.125C640.648 282.385 640.303 283.87 640.303 285.58C640.303 287.29 640.648 288.79 641.338 290.08C642.058 291.34 642.988 292.3 644.128 292.96C645.298 293.62 646.528 293.95 647.818 293.95C649.138 293.95 650.368 293.62 651.508 292.96C652.678 292.27 653.608 291.28 654.298 289.99C655.018 288.7 655.378 287.2 655.378 285.49ZM675.526 298.405C673.186 298.405 671.071 297.88 669.181 296.83C667.291 295.75 665.806 294.25 664.726 292.33C663.646 290.38 663.106 288.13 663.106 285.58C663.106 283.06 663.661 280.825 664.771 278.875C665.881 276.925 667.396 275.425 669.316 274.375C671.236 273.325 673.381 272.8 675.751 272.8C678.121 272.8 680.266 273.325 682.186 274.375C684.106 275.425 685.621 276.925 686.731 278.875C687.841 280.825 688.396 283.06 688.396 285.58C688.396 288.1 687.826 290.335 686.686 292.285C685.546 294.235 683.986 295.75 682.006 296.83C680.056 297.88 677.896 298.405 675.526 298.405ZM675.526 293.95C676.846 293.95 678.076 293.635 679.216 293.005C680.386 292.375 681.331 291.43 682.051 290.17C682.771 288.91 683.131 287.38 683.131 285.58C683.131 283.78 682.786 282.265 682.096 281.035C681.406 279.775 680.491 278.83 679.351 278.2C678.211 277.57 676.981 277.255 675.661 277.255C674.341 277.255 673.111 277.57 671.971 278.2C670.861 278.83 669.976 279.775 669.316 281.035C668.656 282.265 668.326 283.78 668.326 285.58C668.326 288.25 669.001 290.32 670.351 291.79C671.731 293.23 673.456 293.95 675.526 293.95ZM698.552 277.39V291.115C698.552 292.045 698.762 292.72 699.182 293.14C699.632 293.53 700.382 293.725 701.432 293.725H704.582V298H700.532C698.222 298 696.452 297.46 695.222 296.38C693.992 295.3 693.377 293.545 693.377 291.115V277.39H690.452V273.205H693.377V267.04H698.552V273.205H704.582V277.39H698.552ZM729.595 277.39H725.005V298H719.83V277.39H716.905V273.205H719.83V271.45C719.83 268.6 720.58 266.53 722.08 265.24C723.61 263.92 725.995 263.26 729.235 263.26V267.535C727.675 267.535 726.58 267.835 725.95 268.435C725.32 269.005 725.005 270.01 725.005 271.45V273.205H729.595V277.39ZM743.996 298.405C741.656 298.405 739.541 297.88 737.651 296.83C735.761 295.75 734.276 294.25 733.196 292.33C732.116 290.38 731.576 288.13 731.576 285.58C731.576 283.06 732.131 280.825 733.241 278.875C734.351 276.925 735.866 275.425 737.786 274.375C739.706 273.325 741.851 272.8 744.221 272.8C746.591 272.8 748.736 273.325 750.656 274.375C752.576 275.425 754.091 276.925 755.201 278.875C756.311 280.825 756.866 283.06 756.866 285.58C756.866 288.1 756.296 290.335 755.156 292.285C754.016 294.235 752.456 295.75 750.476 296.83C748.526 297.88 746.366 298.405 743.996 298.405ZM743.996 293.95C745.316 293.95 746.546 293.635 747.686 293.005C748.856 292.375 749.801 291.43 750.521 290.17C751.241 288.91 751.601 287.38 751.601 285.58C751.601 283.78 751.256 282.265 750.566 281.035C749.876 279.775 748.961 278.83 747.821 278.2C746.681 277.57 745.451 277.255 744.131 277.255C742.811 277.255 741.581 277.57 740.441 278.2C739.331 278.83 738.446 279.775 737.786 281.035C737.126 282.265 736.796 283.78 736.796 285.58C736.796 288.25 737.471 290.32 738.821 291.79C740.201 293.23 741.926 293.95 743.996 293.95ZM766.168 276.805C766.918 275.545 767.908 274.57 769.138 273.88C770.398 273.16 771.883 272.8 773.593 272.8V278.11H772.288C770.278 278.11 768.748 278.62 767.698 279.64C766.678 280.66 766.168 282.43 766.168 284.95V298H761.038V273.205H766.168V276.805ZM800.842 255.97V260.2H796.297V302.095H800.842V306.37H791.482V255.97H800.842ZM831.593 273.205V298H826.463V295.075C825.653 296.095 824.588 296.905 823.268 297.505C821.978 298.075 820.598 298.36 819.128 298.36C817.178 298.36 815.423 297.955 813.863 297.145C812.333 296.335 811.118 295.135 810.218 293.545C809.348 291.955 808.913 290.035 808.913 287.785V273.205H813.998V287.02C813.998 289.24 814.553 290.95 815.663 292.15C816.773 293.32 818.288 293.905 820.208 293.905C822.128 293.905 823.643 293.32 824.753 292.15C825.893 290.95 826.463 289.24 826.463 287.02V273.205H831.593ZM846.462 298.405C844.512 298.405 842.757 298.06 841.197 297.37C839.667 296.65 838.452 295.69 837.552 294.49C836.652 293.26 836.172 291.895 836.112 290.395H841.422C841.512 291.445 842.007 292.33 842.907 293.05C843.837 293.74 844.992 294.085 846.372 294.085C847.812 294.085 848.922 293.815 849.702 293.275C850.512 292.705 850.917 291.985 850.917 291.115C850.917 290.185 850.467 289.495 849.567 289.045C848.697 288.595 847.302 288.1 845.382 287.56C843.522 287.05 842.007 286.555 840.837 286.075C839.667 285.595 838.647 284.86 837.777 283.87C836.937 282.88 836.517 281.575 836.517 279.955C836.517 278.635 836.907 277.435 837.687 276.355C838.467 275.245 839.577 274.375 841.017 273.745C842.487 273.115 844.167 272.8 846.057 272.8C848.877 272.8 851.142 273.52 852.852 274.96C854.592 276.37 855.522 278.305 855.642 280.765H850.512C850.422 279.655 849.972 278.77 849.162 278.11C848.352 277.45 847.257 277.12 845.877 277.12C844.527 277.12 843.492 277.375 842.772 277.885C842.052 278.395 841.692 279.07 841.692 279.91C841.692 280.57 841.932 281.125 842.412 281.575C842.892 282.025 843.477 282.385 844.167 282.655C844.857 282.895 845.877 283.21 847.227 283.6C849.027 284.08 850.497 284.575 851.637 285.085C852.807 285.565 853.812 286.285 854.652 287.245C855.492 288.205 855.927 289.48 855.957 291.07C855.957 292.48 855.567 293.74 854.787 294.85C854.007 295.96 852.897 296.83 851.457 297.46C850.047 298.09 848.382 298.405 846.462 298.405ZM883.325 284.995C883.325 285.925 883.265 286.765 883.145 287.515H864.2C864.35 289.495 865.085 291.085 866.405 292.285C867.725 293.485 869.345 294.085 871.265 294.085C874.025 294.085 875.975 292.93 877.115 290.62H882.65C881.9 292.9 880.535 294.775 878.555 296.245C876.605 297.685 874.175 298.405 871.265 298.405C868.895 298.405 866.765 297.88 864.875 296.83C863.015 295.75 861.545 294.25 860.465 292.33C859.415 290.38 858.89 288.13 858.89 285.58C858.89 283.03 859.4 280.795 860.42 278.875C861.47 276.925 862.925 275.425 864.785 274.375C866.675 273.325 868.835 272.8 871.265 272.8C873.605 272.8 875.69 273.31 877.52 274.33C879.35 275.35 880.775 276.79 881.795 278.65C882.815 280.48 883.325 282.595 883.325 284.995ZM877.97 283.375C877.94 281.485 877.265 279.97 875.945 278.83C874.625 277.69 872.99 277.12 871.04 277.12C869.27 277.12 867.755 277.69 866.495 278.83C865.235 279.94 864.485 281.455 864.245 283.375H877.97ZM899.218 306.37H889.858V302.095H894.403V260.2H889.858V255.97H899.218V306.37ZM916.785 266.275C919.845 266.275 922.29 267.115 924.12 268.795C925.98 270.475 926.91 272.77 926.91 275.68C926.91 278.71 925.95 280.99 924.03 282.52C922.11 284.05 919.56 284.815 916.38 284.815L916.2 288.37H911.745L911.52 281.305H913.005C915.915 281.305 918.135 280.915 919.665 280.135C921.225 279.355 922.005 277.87 922.005 275.68C922.005 274.09 921.54 272.845 920.61 271.945C919.71 271.045 918.45 270.595 916.83 270.595C915.21 270.595 913.935 271.03 913.005 271.9C912.075 272.77 911.61 273.985 911.61 275.545H906.795C906.795 273.745 907.2 272.14 908.01 270.73C908.82 269.32 909.975 268.225 911.475 267.445C913.005 266.665 914.775 266.275 916.785 266.275ZM913.905 298.315C912.975 298.315 912.195 298 911.565 297.37C910.935 296.74 910.62 295.96 910.62 295.03C910.62 294.1 910.935 293.32 911.565 292.69C912.195 292.06 912.975 291.745 913.905 291.745C914.805 291.745 915.57 292.06 916.2 292.69C916.83 293.32 917.145 294.1 917.145 295.03C917.145 295.96 916.83 296.74 916.2 297.37C915.57 298 914.805 298.315 913.905 298.315Z" fill="black"/>
</g>
<g id="library-scene">
<rect id="Rectangle 9_2" x="28" width="218" height="218" rx="20" fill="#C73635"/>
<rect id="Rectangle 10_2" x="37" y="9" width="200" height="200" rx="14" fill="#CC9D9C"/>
<g id="Group 1">
<mask id="mask0_14_64" style="mask-type:alpha" maskUnits="userSpaceOnUse" x="37" y="9" width="200" height="200">
<rect id="Mask" x="37" y="9" width="200" height="200" rx="14" fill="#CC9D9C"/>
</mask>
<g mask="url(#mask0_14_64)">
<rect id="Rectangle 13_2" x="44" y="17" width="185" height="49" rx="7" fill="white"/>
<rect id="Rectangle 14" x="45" y="73" width="185" height="49" rx="7" fill="white"/>
<rect id="Rectangle 15" x="45" y="129" width="185" height="49" rx="7" fill="white"/>
<rect id="Rectangle 16" x="45" y="185" width="185" height="49" rx="7" fill="white"/>
</g>
</g>
<rect id="Rectangle 11_2" x="246" y="37" width="19" height="90" fill="#E4C159"/>
<rect id="Rectangle 12_3" x="9" y="37" width="19" height="90" fill="#E4C159"/>
<g id="library-browser">
<path id="Vector 2" d="M154 218H268.5" stroke="#B9E6F9" stroke-width="20" stroke-linecap="round"/>
<path id="Vector 1" d="M144 211H278.5" stroke="#868686" stroke-width="20" stroke-linecap="round"/>
<g id="Bop Chooser">
<g id="Head">
<circle id="Ellipse 1" cx="219.071" cy="64" r="28" fill="#FFD865"/>
<circle id="Ellipse 2" cx="194.071" cy="57" r="8" fill="#C73635"/>
</g>
<path id="Vector 2_2" d="M247.216 97H192.071C186.548 97 182.025 101.471 182.158 106.993C182.732 130.834 187.083 165 220.083 165C253.756 165 258.491 129.426 256.766 105.547C256.41 100.611 252.165 97 247.216 97Z" fill="#444444"/>
<path id="Vector 3" d="M219.071 127C228.071 127 234.071 119.5 234.071 112C234.071 102 222.571 91.5 210.071 100L180.571 122.5L200.071 86C202.571 82 203.571 78.5 199.071 75C196.571 73.5 191.571 73 189.071 77L165.571 122C161.071 128.5 167.071 136 173.071 136L219.071 127Z" fill="#E4C159"/>
</g>
</g>
</g>
<g id="conveyor-scene">
<g id="Bop Chooser_2">
<g id="Head_2">
<circle id="Ellipse 1_2" r="28" transform="matrix(-1 0 0 1 909 493)" fill="#FFD865"/>
<circle id="Ellipse 2_2" r="8" transform="matrix(-1 0 0 1 934 486)" fill="#C73635"/>
</g>
<path id="Vector 2_3" d="M880.855 526H936C941.523 526 946.046 530.471 945.913 535.993C945.339 559.834 940.988 594 907.988 594C874.315 594 869.58 558.426 871.305 534.547C871.661 529.611 875.906 526 880.855 526Z" fill="#B9E6F9"/>
<g id="Pipe Segment 2">
<path id="Vector 4" d="M965.756 452.74L969.899 502.066C970.361 507.569 975.197 511.656 980.701 511.194L1028.03 507.219" stroke="#FFD865" stroke-width="40"/>
<rect id="Bracket_11" x="1018.68" y="485.425" width="19" height="46" transform="rotate(-4.80069 1018.68 485.425)" fill="#E4C159"/>
<rect id="Bracket_12" x="943.59" y="463.633" width="19" height="46" transform="rotate(-94.8007 943.59 463.633)" fill="#E4C159"/>
</g>
</g>
<g id="Conveyor Belt">
<rect id="Belt" x="869" y="566" width="364" height="42" rx="21" stroke="#868686" stroke-width="4"/>
<g id="Rollers">
<circle id="Ellipse 3" cx="890" cy="587" r="16" fill="black"/>
<circle id="Ellipse 4" cx="1212" cy="587" r="16" fill="black"/>
<circle id="Ellipse 5" cx="1051" cy="587" r="16" fill="black"/>
<circle id="Ellipse 6" cx="1132" cy="587" r="16" fill="black"/>
<circle id="Ellipse 7" cx="971" cy="587" r="16" fill="black"/>
</g>
</g>
<path id="Bop Chooser arm" d="M905.806 560.669C896.849 559.792 891.609 551.743 892.34 544.278C893.315 534.326 905.784 524.997 917.395 534.675L944.561 559.944L955.564 514.3C956.149 508.328 958.578 504.045 963.554 504.532C967.535 504.922 967.74 507.956 967.204 513.43L959.539 560.909C958.759 568.871 956.681 574.696 950.709 574.111L905.806 560.669Z" fill="#E4C159"/>
<g id="Pipe Segment 1">
<path id="Vector 4_2" d="M1110 540.5H1202" stroke="#FFD865" stroke-width="40"/>
<rect id="Bracket_13" x="1196" y="518" width="19" height="46" fill="#E4C159"/>
<rect id="Bracket_14" x="1091" y="518" width="19" height="46" fill="#E4C159"/>
</g>
</g>
</g>
</svg>
