<?xml version="1.0" standalone="no"?>
<!DOCTYPE svg PUBLIC "-//W3C//DTD SVG 20010904//EN"
 "http://www.w3.org/TR/2001/REC-SVG-20010904/DTD/svg10.dtd">
<svg version="1.0" xmlns="http://www.w3.org/2000/svg"
 width="720.000000pt" height="720.000000pt" viewBox="0 0 720.000000 720.000000"
 preserveAspectRatio="xMidYMid meet">
<metadata>
Created by potrace 1.14, written by Peter Selinger 2001-2017
</metadata>
<g transform="translate(0.000000,720.000000) scale(0.100000,-0.100000)"
fill="#000000" stroke="none">
<path d="M1973 5170 c-79 -26 -161 -99 -200 -178 -24 -49 -28 -69 -28 -142 0
-76 4 -93 33 -152 58 -118 152 -179 287 -186 108 -5 179 21 250 92 78 78 100
132 100 241 0 76 -4 99 -26 145 -74 156 -252 233 -416 180z"/>
<path d="M5044 5181 c-98 -24 -190 -99 -233 -191 -22 -46 -26 -69 -26 -145 0
-109 22 -163 100 -241 71 -71 142 -97 250 -92 135 7 229 68 287 186 29 59 33
76 33 152 0 73 -4 93 -28 142 -70 142 -236 224 -383 189z"/>
<path d="M3375 4334 c-258 -46 -504 -175 -689 -360 -158 -158 -280 -370 -338
-589 -30 -115 -32 -129 -32 -315 -1 -214 8 -275 66 -440 106 -299 337 -568
611 -710 63 -33 65 -35 77 -87 48 -214 337 -372 614 -335 222 29 410 170 446
335 12 52 14 54 77 87 222 114 434 333 551 565 39 78 85 209 108 310 27 114
27 416 0 530 -125 535 -524 919 -1050 1010 -110 19 -332 18 -441 -1z"/>
</g>
</svg>
